<?xml version="1.0" encoding="UTF-8"?><svg id="Layer_1" xmlns="http://www.w3.org/2000/svg" width="309.63" height="90.67" viewBox="0 0 309.63 90.67"><defs><style>.cls-1{fill:#fff;}.cls-2{fill:#2bc5cb;}</style></defs><g id="Layer_1-2"><g><path class="cls-2" d="M77.24,27.63s-11.72-7.23-23.01,2.05c0,0-8.68,6.6-6.05,18.75,0,0,2.54,12.22,16.5,14.41,0,0,13.91,2.18,20.41-11.33,0,0,2.11-4.01,2.08-11.06V0h5.61V43.11s.9,12.01-9.81,20.15c0,0-8.95,7.75-22.26,4.4,0,0-17.61-3.94-18.86-22.91,0,0-1.1-14.19,11.74-22.01,0,0,12.88-9.13,27.9,.28l-4.24,4.61Z"/><path class="cls-2" d="M39.64,23.01l-4.26,4.61s-13.43-8.01-24.74,3.73c0,0-5.37,5.69-4.75,13.85,0,0,.21,7.91,7.23,13.6,0,0,4.52,3.58,10.17,4.11,0,0,8.56,1.4,15.92-5.56l3.37,4.69s-7.83,7.85-20.38,6.23c0,0-12.08-.65-19.11-12.64,0,0-5.27-8.47-2.06-18.89,0,0,3.77-14.91,19.68-17.48,0,0,9.7-2.06,18.93,3.75"/><g><path class="cls-2" d="M147.54,42.6v1.51s.04-.56,0-1.51Z"/><path class="cls-2" d="M147.54,65.28v-22.68c-.12-2.79-.95-8.98-5.61-14.62-1.15-1.4-2.54-2.76-4.21-4.02,0,0-8.95-7.76-22.26-4.4,0,0-17.61,3.94-18.86,22.91,0,0-.45,5.93,2.69,12.23,.96,1.93,2.26,3.9,4.02,5.75,1.38,1.45,3.04,2.82,5.04,4.03,0,0,12.88,9.13,27.9-.28l-4.24-4.61s-11.72,7.23-23.01-2.05c0,0-1.27-.97-2.69-2.84-1.07-1.41-2.22-3.33-2.99-5.75-.87-2.76-1.24-6.16-.37-10.16,0,0,2.54-12.22,16.5-14.41,0,0,13.91-2.18,20.41,11.33,0,0,2.11,4.01,2.08,11.06v15.86c.02,7.05-2.08,11.06-2.08,11.06-6.5,13.51-20.41,11.33-20.41,11.33-7.18-1.13-11.34-4.91-13.68-8.32h-6.65c5.17,10.63,16.36,13.14,16.36,13.14,13.31,3.35,22.26-4.4,22.26-4.4,10.71-8.14,9.81-20.15,9.81-20.15Z"/></g><g><path class="cls-2" d="M167.87,21.69v16.6h-3.45V21.69h3.45Z"/><path class="cls-2" d="M173.34,33.44c0,1.49,.21,2.9,1.98,2.9,1.2,0,1.79-.44,2.12-1.49h3.1c-.3,2.85-2.53,3.79-5.22,3.79-3.96,0-5.54-2.23-5.54-6.09,0-3.47,2.02-6.14,5.54-6.14,2.16,0,3.96,.74,4.92,2.76,.32,.64,.48,1.33,.57,2.07,.09,.71,.09,1.45,.09,2.21h-7.57Zm4-2.3c0-1.26-.35-2.44-2.02-2.44-1.59,0-1.93,1.17-1.98,2.44h4Z"/><path class="cls-2" d="M186.22,21.69v2.97h-3.68v-2.97h3.68Zm-.12,5.06v11.54h-3.45v-11.54h3.45Z"/><path class="cls-2" d="M194.47,29.83c-.05-.78-.78-1.13-1.56-1.13-.94,0-1.38,.28-1.38,1.03,0,1.82,6.6,.78,6.6,5.1,0,2.53-3.08,3.79-5.22,3.79-2.69,0-5.04-1.06-5.08-3.7h3.2c.07,.9,.87,1.4,1.89,1.4,.94,0,1.65-.39,1.65-1.29s-1.65-1.31-2.35-1.47c-2.21-.53-4.25-1.01-4.25-3.7,0-2.42,2.92-3.47,4.94-3.47,2.44,0,4.51,.87,4.67,3.43h-3.1Z"/><path class="cls-2" d="M207.22,36.87c-.74,1.06-1.82,1.77-3.56,1.77-1.15,0-3.38-.87-3.79-2.55-.18-.71-.23-1.45-.23-1.84v-7.5h3.45v6.92c.02,1.24,.37,2.67,2.07,2.67,1.08,0,2.02-.99,2.07-2.67v-6.92h3.45v9.48c.02,.69,.07,1.38,.14,2.07h-3.45l-.14-1.43Z"/><path class="cls-2" d="M216.12,26.75l.07,2.09h.05c.74-1.82,2.21-2.28,3.93-2.23v3.06h-1.49c-.58,.05-1.33,.37-1.68,.85-.37,.64-.44,1.29-.46,2.05v5.73h-3.43l-.02-9.24c0-.48-.07-1.45-.12-2.3h3.15Z"/><path class="cls-2" d="M224.6,33.44c0,1.49,.21,2.9,1.98,2.9,1.2,0,1.79-.44,2.11-1.49h3.1c-.3,2.85-2.53,3.79-5.22,3.79-3.95,0-5.54-2.23-5.54-6.09,0-3.47,2.02-6.14,5.54-6.14,2.16,0,3.95,.74,4.92,2.76,.32,.64,.48,1.33,.57,2.07,.09,.71,.09,1.45,.09,2.21h-7.56Zm4-2.3c0-1.26-.35-2.44-2.02-2.44-1.59,0-1.93,1.17-1.98,2.44h4Z"/><path class="cls-1" d="M164.86,58.2c.16,1.79,1.36,3.06,3.15,3.06,2.12,0,2.92-2.14,2.92-4.14v-11.43h1.49v11.2c0,1.22-.07,2.81-1.15,4.12-.94,1.15-2.32,1.63-3.75,1.63-2.69,0-3.96-2.02-4.28-4.44,0,0,1.61,0,1.61,0Z"/><path class="cls-1" d="M185.09,56.52c0,3.04-1.7,6.12-5.38,6.12s-5.38-3.08-5.38-6.12,1.7-6.12,5.38-6.12c3.68,0,5.38,3.08,5.38,6.12Zm-5.38-4.85c-2.78,0-3.89,2.71-3.89,4.85s1.1,4.85,3.89,4.85,3.89-2.71,3.89-4.85-1.1-4.85-3.89-4.85Z"/><path class="cls-1" d="M188.16,47.42h-1.61v-1.72h1.61v1.72Zm-.11,3.33v11.54h-1.38v-11.54h1.38Z"/><path class="cls-1" d="M191.7,62.29h-1.38v-8.94c0-.9-.07-1.82-.12-2.6h1.43l.07,1.7,.05,.05c.8-1.43,2.12-2.09,3.61-2.09,3.77,0,4.07,3.33,4.07,4.67v7.22h-1.38v-7.45c0-2-1.15-3.17-3.04-3.17-2.28,0-3.31,1.91-3.31,3.98v6.64h0Z"/><path class="cls-1" d="M208.42,52.02h-2.3v-1.27h2.3v-2.46l1.38-.6v3.06h2.62v1.27h-2.62v7.73c-.02,1.06,.53,1.63,1.59,1.63,.41,0,.83-.02,1.2-.14v1.19c-.44,.11-.94,.21-1.4,.21-2.92,0-2.76-1.86-2.76-3.43v-7.2h0Z"/><path class="cls-1" d="M215.09,52.5h.04c.8-1.43,2.12-2.09,3.61-2.09,3.77,0,4.07,3.33,4.07,4.67v7.22h-1.38v-7.45c0-2-1.15-3.17-3.04-3.17-2.28,0-3.31,1.91-3.31,3.98v6.65h-1.38v-16.6h1.38v6.81h0Z"/><path class="cls-1" d="M225.92,56.85c.05,2.46,1.17,4.53,4,4.53,1.63,0,2.99-1.17,3.33-2.76h1.45c-.71,2.76-2.44,4.02-5.22,4.02-3.45,0-5.06-2.97-5.06-6.12s1.73-6.12,5.15-6.12c3.86,0,5.27,2.83,5.27,6.44h-8.92Zm7.43-1.26c-.16-2.23-1.36-3.91-3.75-3.91-2.25,0-3.45,1.89-3.63,3.91h7.38Z"/><path class="cls-1" d="M240.46,65.45c2.02,.02,1.79-.53,1.79-3.54v-11.15h1.38v12.05c0,2.97-.07,4-3.17,3.91v-1.26Zm3.29-18.03h-1.61v-1.72h1.61v1.72Z"/><path class="cls-1" d="M255.94,56.52c0,3.04-1.7,6.12-5.38,6.12s-5.38-3.08-5.38-6.12,1.7-6.12,5.38-6.12c3.68,0,5.38,3.08,5.38,6.12Zm-5.38-4.85c-2.78,0-3.89,2.71-3.89,4.85s1.1,4.85,3.89,4.85,3.89-2.71,3.89-4.85-1.1-4.85-3.89-4.85Z"/><path class="cls-1" d="M265.21,50.75h1.38v8.94c0,.9,.07,1.82,.11,2.6h-1.43l-.07-1.7-.05-.05c-.8,1.43-2.11,2.09-3.61,2.09-3.77,0-4.07-3.33-4.07-4.67v-7.22h1.38v7.45c0,2,1.15,3.17,3.04,3.17,2.28,0,3.31-1.91,3.31-3.98v-6.65h0Z"/><path class="cls-1" d="M270.28,62.29h-1.38v-8.94c.02-.9-.07-1.82-.11-2.6h1.43l.07,1.7h.05c.41-1.17,1.45-2,2.6-2.05,.46-.02,.92,0,1.38,.02v1.33c-.27-.02-.57-.09-.85-.09-2.05,0-3.13,1.47-3.17,3.68v6.94h0Z"/><path class="cls-1" d="M277.2,62.29h-1.38v-8.94c0-.9-.07-1.82-.11-2.6h1.43l.07,1.7,.05,.05c.8-1.43,2.11-2.09,3.61-2.09,3.77,0,4.07,3.33,4.07,4.67v7.22h-1.38v-7.45c0-2-1.15-3.17-3.04-3.17-2.28,0-3.31,1.91-3.31,3.98v6.64h0Z"/><path class="cls-1" d="M288.03,56.85c.05,2.46,1.17,4.53,4,4.53,1.63,0,2.99-1.17,3.33-2.76h1.45c-.71,2.76-2.44,4.02-5.22,4.02-3.45,0-5.06-2.97-5.06-6.12s1.72-6.12,5.15-6.12c3.86,0,5.27,2.83,5.27,6.44h-8.92Zm7.43-1.26c-.16-2.23-1.36-3.91-3.75-3.91-2.25,0-3.45,1.89-3.63,3.91h7.38Z"/><path class="cls-1" d="M298.49,50.75l3.89,9.66,3.86-9.66h1.49l-6.37,15.96h-1.52l1.75-4.42-4.78-11.54h1.68Z"/><path class="cls-1" d="M307.79,62.29v-1.98h1.84v1.98h-1.84Z"/></g></g></g></svg>